<?xml version="1.0" encoding="UTF-8" standalone="no"?>
<svg
   xmlns:dc="http://purl.org/dc/elements/1.1/"
   xmlns:cc="http://creativecommons.org/ns#"
   xmlns:rdf="http://www.w3.org/1999/02/22-rdf-syntax-ns#"
   xmlns:svg="http://www.w3.org/2000/svg"
   xmlns="http://www.w3.org/2000/svg"
   height="20"
   width="20"
   version="1.1"
   id="svg2"
   style="display:block"
   viewBox="0 0 20 20">
  <metadata
     id="metadata11">
    <rdf:RDF>
      <cc:Work
         rdf:about="">
        <dc:format>image/svg+xml</dc:format>
        <dc:type
           rdf:resource="http://purl.org/dc/dcmitype/StillImage" />
        <dc:title></dc:title>
      </cc:Work>
    </rdf:RDF>
  </metadata>
  <defs
     id="defs9" />
  <g
     transform="translate(-2,-2)"
     id="satellite">
    <path
       id="path5"
       d="M 12,2 C 6.5,2 2,6.5 2,12 2,17.5 6.5,22 12,22 17.5,22 22,17.5 22,12 22,6.5 17.5,2 12,2 Z m 2.5,8 -4.2,4.2 L 8,12 4.7,15.3 C 4.3,14.3 4,13.2 4,12 4,7.6 7.6,4 12,4 c 4.4,0 8,3.6 8,8 0,1 -0.2,2 -0.6,2.9 L 14.5,10 Z" />
  </g>
</svg>
