<?xml version="1.0" encoding="UTF-8" standalone="no"?>
<!-- Generator: Adobe Illustrator 19.1.0, SVG Export Plug-In . SVG Version: 6.00 Build 0)  -->

<svg
   xmlns:dc="http://purl.org/dc/elements/1.1/"
   xmlns:cc="http://creativecommons.org/ns#"
   xmlns:rdf="http://www.w3.org/1999/02/22-rdf-syntax-ns#"
   xmlns:svg="http://www.w3.org/2000/svg"
   xmlns="http://www.w3.org/2000/svg"
   xmlns:sodipodi="http://sodipodi.sourceforge.net/DTD/sodipodi-0.dtd"
   xmlns:inkscape="http://www.inkscape.org/namespaces/inkscape"
   version="1.1"
   id="Layer_1"
   x="0px"
   y="0px"
   viewBox="0 0 642 642"
   xml:space="preserve"
   inkscape:version="0.91 r13725"
   sodipodi:docname="LogoColor.svg"
   width="642"
   height="642"><metadata
     id="metadata18"><rdf:RDF><cc:Work
         rdf:about=""><dc:format>image/svg+xml</dc:format><dc:type
           rdf:resource="http://purl.org/dc/dcmitype/StillImage" /><dc:title></dc:title></cc:Work></rdf:RDF></metadata><defs
     id="defs16" /><sodipodi:namedview
     pagecolor="#ffffff"
     bordercolor="#666666"
     borderopacity="1"
     objecttolerance="10"
     gridtolerance="10"
     guidetolerance="10"
     inkscape:pageopacity="0"
     inkscape:pageshadow="2"
     inkscape:window-width="640"
     inkscape:window-height="480"
     id="namedview14"
     showgrid="false"
     fit-margin-top="0"
     fit-margin-left="0"
     fit-margin-right="0"
     fit-margin-bottom="0"
     inkscape:zoom="0.236"
     inkscape:cx="321"
     inkscape:cy="321"
     inkscape:window-x="0"
     inkscape:window-y="0"
     inkscape:window-maximized="0"
     inkscape:current-layer="Layer_1" /><style
     type="text/css"
     id="style3">
	.st0{fill:#484748;}
	.st1{fill:#3E6BB4;}
	.st2{fill:none;stroke:#3E6BB4;stroke-width:51;stroke-miterlimit:10;}
</style><g
     id="g5"
     transform="translate(-179,-179)"><polygon
       class="st0"
       points="602.8,366.6 783.7,547.5 775.1,599.8 720.7,688.2 635.5,754.4 525.3,787.2 402.6,770.8 325.8,730.4 265.2,671.2 251.2,637.4 401.7,457.6 487.1,526.1 "
       id="polygon7"
       style="fill:#484748" /><path
       class="st1"
       d="M 242.2,614.9 387.8,446 l 11.8,-13.7 13.5,11.2 84.4,69.8 -23.8,3.2 118,-157.9 9.8,-13.1 11.1,11.4 178.3,183.5 3.7,3.8 -0.9,5 -9.4,52.1 -0.3,1.9 -0.9,1.4 -55.7,87.7 -0.8,1.3 -1.1,0.8 -86.2,65 -1,0.8 -1.1,0.3 -110.6,31.3 -1,0.3 -0.9,-0.1 -122.5,-18.2 -0.6,-0.1 -0.4,-0.2 -76.2,-41.5 -0.2,-0.1 -0.2,-0.2 -59.7,-60.1 -0.1,-0.1 0,-0.1 -13.6,-34 -9,-22.5 z m 18.6,44.7 4.9,11.4 -0.1,-0.2 61.4,58.3 -0.4,-0.3 77.4,39.3 -1,-0.3 123,14.7 -2,0.2 109.7,-34.4 -2.1,1.1 84.3,-67.4 -1.9,2.1 53.2,-89.2 -1.3,3.4 7.9,-52.4 2.8,8.8 -183.5,-178.4 20.9,-1.7 -113.5,161.3 -9.9,14.1 -13.9,-10.9 -86.4,-67.3 25.3,-2.5 -148,181.9 -6.8,8.4 z"
       id="path9"
       inkscape:connector-curvature="0"
       style="fill:#3e6bb4" /></g><g
     id="Layer_2"
     transform="translate(-179,-179)"><path
       class="st2"
       d="m 795.5,500 c 0,163.2 -132.3,295.5 -295.5,295.5 -109.9,0 -205.8,-60 -256.7,-149 -24.7,-43.2 -38.8,-93.2 -38.8,-146.5 0,-163.2 132.3,-295.5 295.5,-295.5 163.2,0 295.5,132.3 295.5,295.5 z"
       id="path12"
       inkscape:connector-curvature="0"
       style="fill:none;stroke:#3e6bb4;stroke-width:51;stroke-miterlimit:10" /></g></svg>